<svg xmlns="http://www.w3.org/2000/svg" viewBox="0 0 430 205" width="430" height="205" fill="none"><rect x="0.5" y="0.5" width="429" height="204" rx="14" fill="#050810" stroke="#1b2233"/><rect x="0" y="0" width="430" height="4" rx="2" fill="#7c3aed"/><circle cx="404" cy="26" r="4.5" fill="#a855f7"/><circle cx="404" cy="26" r="9" fill="none" stroke="#a855f7" stroke-opacity="0.35"/><text x="26" y="40" font-family='Segoe UI',system-ui,-apple-system,sans-serif font-size="21" font-weight="700" fill="#e9d5ff">Most Used Languages</text><rect x="26.0" y="64" width="198.6" height="11" fill="#DA5B0B"/><rect x="224.6" y="64" width="155.6" height="11" fill="#3572A5"/><rect x="380.2" y="64" width="10.7" height="11" fill="#e34c26"/><rect x="390.9" y="64" width="5.9" height="11" fill="#f1e05a"/><rect x="396.9" y="64" width="4.9" height="11" fill="#663399"/><rect x="401.8" y="64" width="2.2" height="11" fill="#3178c6"/><circle cx="30" cy="100" r="4" fill="#DA5B0B"/><text x="42" y="104" font-family='Segoe UI',system-ui,-apple-system,sans-serif font-size="13.5" fill="#c7cdd8">Jupyter Notebook</text><text x="42" y="120" font-family='JetBrains Mono','Consolas',ui-monospace,monospace font-size="11" fill="#7c8598">52.5%</text><circle cx="232" cy="100" r="4" fill="#3572A5"/><text x="244" y="104" font-family='Segoe UI',system-ui,-apple-system,sans-serif font-size="13.5" fill="#c7cdd8">Python</text><text x="244" y="120" font-family='JetBrains Mono','Consolas',ui-monospace,monospace font-size="11" fill="#7c8598">41.2%</text><circle cx="30" cy="142" r="4" fill="#e34c26"/><text x="42" y="146" font-family='Segoe UI',system-ui,-apple-system,sans-serif font-size="13.5" fill="#c7cdd8">HTML</text><text x="42" y="162" font-family='JetBrains Mono','Consolas',ui-monospace,monospace font-size="11" fill="#7c8598">2.8%</text><circle cx="232" cy="142" r="4" fill="#f1e05a"/><text x="244" y="146" font-family='Segoe UI',system-ui,-apple-system,sans-serif font-size="13.5" fill="#c7cdd8">JavaScript</text><text x="244" y="162" font-family='JetBrains Mono','Consolas',ui-monospace,monospace font-size="11" fill="#7c8598">1.6%</text><circle cx="30" cy="184" r="4" fill="#663399"/><text x="42" y="188" font-family='Segoe UI',system-ui,-apple-system,sans-serif font-size="13.5" fill="#c7cdd8">CSS</text><text x="42" y="204" font-family='JetBrains Mono','Consolas',ui-monospace,monospace font-size="11" fill="#7c8598">1.3%</text><circle cx="232" cy="184" r="4" fill="#3178c6"/><text x="244" y="188" font-family='Segoe UI',system-ui,-apple-system,sans-serif font-size="13.5" fill="#c7cdd8">TypeScript</text><text x="244" y="204" font-family='JetBrains Mono','Consolas',ui-monospace,monospace font-size="11" fill="#7c8598">0.6%</text></svg>